<?xml version="1.0" encoding="utf-8"?>
<!-- Generator: Adobe Illustrator 21.1.0, SVG Export Plug-In . SVG Version: 6.00 Build 0)  -->
<svg version="1.1" id="Layer_1" xmlns="http://www.w3.org/2000/svg" xmlns:xlink="http://www.w3.org/1999/xlink" x="0px" y="0px"
	 viewBox="0 0 72.5 35.8" style="enable-background:new 0 0 72.5 35.8;" xml:space="preserve">
<style type="text/css">
	.st0{fill:#69707A;}
</style>
<g>
	<path class="st0" d="M68.1,9.7h-2.4c-0.5-4.8-4.6-8.6-9.6-8.6H16.3c-5,0-9,3.8-9.6,8.6H4.3c-1.9,0-3.4,1.5-3.4,3.4v9.3
		c0,1.9,1.5,3.4,3.4,3.4h2.4c0.5,4.8,4.6,8.6,9.6,8.6H26c1.8,0,3.5-0.7,4.9-2.1c1.4-1.4,3.3-2.2,5.4-2.2s3.9,0.8,5.4,2.2
		c1.4,1.3,3.1,2.1,4.9,2.1h9.7c5,0,9-3.8,9.6-8.6h2.4c1.9,0,3.4-1.5,3.4-3.4v-9.3C71.5,11.3,70,9.7,68.1,9.7z M69.2,22.5
		c0,0.6-0.5,1.1-1.1,1.1h-2.3V12h2.3c0.6,0,1.1,0.5,1.1,1.1V22.5z M56.1,32.1h-9.7c-1.2,0-2.4-0.5-3.3-1.4c-1.9-1.8-4.3-2.8-7-2.8
		s-5.1,1-7,2.8c-0.9,0.9-2.1,1.4-3.3,1.4h-9.7c-4.1,0-7.4-3.3-7.4-7.4V10.8c0-4.1,3.3-7.4,7.4-7.4h39.8c4.1,0,7.4,3.3,7.4,7.4v14
		C63.5,28.8,60.2,32.1,56.1,32.1z M3.2,22.5v-9.3c0-0.6,0.5-1.1,1.1-1.1h2.3v11.6H4.3C3.7,23.6,3.2,23.1,3.2,22.5z"/>
	<path class="st0" d="M60.6,10.8c0-2.5-2-4.5-4.5-4.5H16.3c-2.5,0-4.5,2-4.5,4.5v14c0,2.5,2,4.5,4.5,4.5H26c0.6,0,1.1-0.4,1.3-0.6
		c2.4-2.4,5.6-3.7,8.9-3.7c3.4,0,6.5,1.3,8.9,3.7c0.2,0.2,0.7,0.6,1.3,0.6h9.7c2.5,0,4.5-2,4.5-4.5V10.8z"/>
</g>
</svg>
