<?xml version="1.0" encoding="utf-8"?>
<!-- Generator: Adobe Illustrator 21.1.0, SVG Export Plug-In . SVG Version: 6.00 Build 0)  -->
<svg version="1.1" id="Layer_1" xmlns="http://www.w3.org/2000/svg" xmlns:xlink="http://www.w3.org/1999/xlink" x="0px" y="0px"
	 viewBox="0 0 61 90.3" style="enable-background:new 0 0 61 90.3;" xml:space="preserve">
<style type="text/css">
	.st0{fill:#69707A;stroke:#69707A;stroke-width:0.5;stroke-miterlimit:10;}
</style>
<g>
	<path class="st0" d="M12.3,60.6c0.8,3.2,2.7,5.9,5.3,7.9v6.1c0,4.2,2.7,7.7,6.4,9v0.1c0,3.6,2.9,6.5,6.5,6.5s6.5-2.9,6.5-6.5v-0.1
		c2.6-0.9,4.6-2.9,5.7-5.4l0,0c0.5-1.1,0.7-2.4,0.7-3.7v-6.2c2.6-2,4.4-4.8,5.2-7.9c1.3-5.1,2.8-8.7,4.3-10.4
		c4.9-5.5,7.5-12.5,7.5-19.9c0-17.2-14.5-31-31.9-29.9c-14.9,1-27,12.9-27.9,27.9C0.1,36,2.7,43.7,7.8,49.7
		C8.9,51.1,10.5,53.9,12.3,60.6z M20.6,69.3h19.9v2H20.6V69.3z M30.5,40.6c-4.6,0-8.3-3.7-8.3-8.3s3.7-8.3,8.3-8.3s8.3,3.7,8.3,8.3
		S35.1,40.6,30.5,40.6z M20.6,74.6v-0.4h19.9v0.4c0,0.6-0.1,1.1-0.2,1.6H20.8C20.6,75.7,20.6,75.2,20.6,74.6z M30.5,87.3
		c-1.8,0-3.2-1.3-3.5-3.1h0.1h6.7h0.1C33.7,85.9,32.3,87.3,30.5,87.3z M33.8,81.2h-6.7c-1.8,0-3.5-0.8-4.7-2h16.1
		C37.3,80.5,35.7,81.2,33.8,81.2z M3.6,28.4C4.5,15,15.3,4.2,28.7,3.3c0.6,0,1.2-0.1,1.8-0.1c14.9,0,27,12.1,27,27
		c0,6.6-2.4,12.9-6.8,17.9c-1.8,2.1-3.5,6-5,11.6c-0.7,2.6-2.2,4.9-4.4,6.5H32V43.5c5.5-0.7,9.8-5.5,9.8-11.2
		C41.8,26,36.7,21,30.5,21s-11.4,5-11.4,11.3c0,5.7,4.3,10.5,9.8,11.2v22.8h-9.4c-2.1-1.6-3.7-3.8-4.4-6.4c-1.5-5.8-3.2-9.9-5.1-12
		C5.4,42.5,3.1,35.6,3.6,28.4z"/>
	<path class="st0" d="M39.2,11.2c1.7,0.8,3.3,1.8,4.8,3c0.3,0.2,0.6,0.4,1,0.4s0.9-0.2,1.1-0.5c0.5-0.6,0.5-1.6-0.2-2.1
		c-1.7-1.4-3.5-2.6-5.4-3.4c-0.8-0.3-1.6,0-2,0.7C38.1,10,38.5,10.8,39.2,11.2z"/>
	<path class="st0" d="M50.8,25.1c0.2,0.7,0.8,1.1,1.5,1.1c0.1,0,0.2,0,0.4,0c0.8-0.2,1.3-1,1.1-1.8c-0.7-2.6-1.7-5-3.2-7.2
		c-0.5-0.7-1.4-0.9-2.1-0.4c-0.7,0.5-0.9,1.4-0.4,2.1C49.3,20.7,50.2,22.8,50.8,25.1z"/>
</g>
</svg>
