<?xml version="1.0" encoding="utf-8"?>
<!-- Generator: Adobe Illustrator 21.1.0, SVG Export Plug-In . SVG Version: 6.00 Build 0)  -->
<svg version="1.1"
	 id="Layer_1" xmlns:cc="http://creativecommons.org/ns#" xmlns:dc="http://purl.org/dc/elements/1.1/" xmlns:inkscape="http://www.inkscape.org/namespaces/inkscape" xmlns:rdf="http://www.w3.org/1999/02/22-rdf-syntax-ns#" xmlns:sodipodi="http://sodipodi.sourceforge.net/DTD/sodipodi-0.dtd" xmlns:svg="http://www.w3.org/2000/svg"
	 xmlns="http://www.w3.org/2000/svg" xmlns:xlink="http://www.w3.org/1999/xlink" x="0px" y="0px" viewBox="0 0 100 78.7"
	 style="enable-background:new 0 0 100 78.7;" xml:space="preserve">
<style type="text/css">
	.st0{fill:#69707A;}
</style>
<g transform="translate(0,-952.36218)">
	<path class="st0" d="M10,953.4c-3.8,0-7,3.2-7,7v50c0,3.8,3.2,7,7,7h30v6h-2c-1.7,0-3,1.3-3,3s1.3,3,3,3h24c1.7,0,3-1.3,3-3
		s-1.3-3-3-3h-2v-6h30c3.8,0,7-3.2,7-7v-50c0-3.8-3.2-7-7-7H10z M10,959.4h80c0.6,0,1,0.4,1,1v39H9v-39C9,959.8,9.4,959.4,10,959.4z
		 M78.5,962.4c-0.3,0-0.5,0.1-0.7,0.3c-0.4,0.4-0.4,1,0,1.4l8.5,8.5c0.4,0.4,1,0.4,1.4,0s0.4-1,0-1.4l-8.5-8.5
		C79,962.5,78.8,962.4,78.5,962.4z M74.3,965.3c-0.3,0-0.5,0.1-0.7,0.3c-0.4,0.4-0.4,1,0,1.4l9.9,9.9c0.4,0.4,1,0.4,1.4,0
		s0.4-1,0-1.4l-9.9-9.9C74.8,965.4,74.5,965.3,74.3,965.3z M9,1005.4h82v5c0,0.6-0.4,1-1,1H10c-0.6,0-1-0.4-1-1V1005.4z M50,1006.4
		c-1.1,0-2,0.9-2,2s0.9,2,2,2s2-0.9,2-2S51.1,1006.4,50,1006.4z M46,1017.4h8v6h-8V1017.4z"/>
</g>
</svg>
