<?xml version="1.0" encoding="utf-8"?>
<!-- Generator: Adobe Illustrator 21.1.0, SVG Export Plug-In . SVG Version: 6.00 Build 0)  -->
<svg version="1.1" id="Layer_1" xmlns="http://www.w3.org/2000/svg" xmlns:xlink="http://www.w3.org/1999/xlink" x="0px" y="0px"
	 viewBox="0 0 88.7 81.9" style="enable-background:new 0 0 88.7 81.9;" xml:space="preserve">
<style type="text/css">
	.st0{fill:#69707A;}
</style>
<g>
	<path class="st0" d="M61.4,0.8c-6.3,0-12.2,2.2-17,6.2c-4.7-4-10.7-6.2-17-6.2c-7,0-13.7,2.7-18.7,7.7c-10.2,10.3-10.2,27,0.1,37.3
		l33.5,33.5c0.6,0.6,1.4,0.9,2.1,0.9s1.5-0.3,2.1-0.9L80,45.8c5-5,7.7-11.6,7.7-18.7S85,13.4,80,8.4C75.1,3.5,68.4,0.8,61.4,0.8z
		 M44.4,73L13.1,41.7h3c1.2,0,2.2-0.7,2.7-1.7l3.3-7.1L30.8,53c0.4,1,1.4,1.7,2.5,1.8c0.1,0,0.1,0,0.2,0c1,0,2-0.5,2.6-1.4l7.4-12.2
		h4.9c1.2,0,2.2-0.7,2.7-1.7l4.3-9l5.2,14.7c0.4,1,1.2,1.7,2.2,1.9s2.1-0.1,2.8-0.9l8.7-9.7h5.2c-1,1.8-2.2,3.5-3.7,5L44.4,73z
		 M81.5,30.6H73c-0.8,0-1.7,0.4-2.2,1l-6.3,6.9l-5.9-16.9c-0.4-1.2-1.5-1.9-2.7-2s-2.4,0.6-2.9,1.7l-6.5,13.9h-4.7
		c-1,0-2,0.5-2.6,1.4l-5.3,8.7l-9.1-20.9c-0.5-1.1-1.5-1.8-2.7-1.8c-1.2-0.1-2.3,0.7-2.8,1.7L14,35.7H8.7c-3.5-7.5-2.1-16.8,4.1-23
		c3.9-3.9,9-6,14.4-6s10.6,2.1,14.4,6l0.4,0.4c1.2,1.2,3.1,1.2,4.2,0l0.4-0.4c3.9-3.9,9-6,14.4-6s10.6,2.1,14.4,6
		c3.9,3.8,6,9,6,14.4C81.8,28.3,81.7,29.5,81.5,30.6z"/>
</g>
</svg>
