<?xml version="1.0" encoding="utf-8"?>
<!-- Generator: Adobe Illustrator 21.1.0, SVG Export Plug-In . SVG Version: 6.00 Build 0)  -->
<svg version="1.1" id="Layer_1" xmlns="http://www.w3.org/2000/svg" xmlns:xlink="http://www.w3.org/1999/xlink" x="0px" y="0px"
	 viewBox="0 0 179 179" style="enable-background:new 0 0 179 179;" xml:space="preserve">
<style type="text/css">
	.st0{fill:#FFFFFF;stroke:#FFFFFF;stroke-miterlimit:10;}
	.st1{fill:#69707A;}
</style>
<title>contact</title>
<circle class="st0" cx="89.5" cy="89.5" r="89"/>
<path class="st1" d="M55.7,63.6c-4.4,0-8,3.6-8,8v42c0,4.4,3.6,8,8,8h68c4.4,0,8-3.6,8-8v-42c0-4.4-3.6-8-8-8H55.7z M55.7,67.6h68
	c0.3,0,0.7,0,1,0.1L91.3,100c-0.9,0.7-2.2,0.7-3.2,0L54.8,67.7C55.1,67.7,55.4,67.6,55.7,67.6z M51.9,70.6l33.4,32.3
	c2.5,2.4,6.3,2.4,8.8,0l33.4-32.3c0.1,0.3,0.1,0.7,0.2,1v42c0,2.2-1.8,4-4,4h-68c-2.2,0-4-1.8-4-4v-42
	C51.7,71.2,51.8,70.9,51.9,70.6L51.9,70.6z"/>
</svg>
