<?xml version="1.0" encoding="utf-8"?>
<!-- Generator: Adobe Illustrator 21.1.0, SVG Export Plug-In . SVG Version: 6.00 Build 0)  -->
<svg version="1.1" id="Layer_1" xmlns="http://www.w3.org/2000/svg" xmlns:xlink="http://www.w3.org/1999/xlink" x="0px" y="0px"
	 viewBox="0 0 91 83.7" style="enable-background:new 0 0 91 83.7;" xml:space="preserve">
<style type="text/css">
	.st0{fill:#69707A;}
</style>
<g>
	<path class="st0" d="M34.3,15.5c1.1-0.5,1.6-1.7,1.1-2.8s-1.7-1.6-2.8-1.1c-12,5.1-19.8,16.8-19.8,29.9c0,8.7,3.4,16.8,9.5,22.9
		c0.4,0.4,0.9,0.6,1.5,0.6c0.5,0,1.1-0.2,1.5-0.6c0.8-0.8,0.8-2.2,0-3C20,56.1,17,49,17,41.4C17.1,30.2,23.9,20,34.3,15.5z"/>
	<path class="st0" d="M79.3,81.6c0.4,0.4,1,0.6,1.5,0.6s1.1-0.2,1.5-0.6l8.1-8.1c0.8-0.8,0.8-2.2,0-3l-8.1-8.1c-0.8-0.8-2.2-0.8-3,0
		s-0.8,2.2,0,3l4.5,4.5h-15c-1.2,0-2.1,0.9-2.1,2.1s0.9,2.1,2.1,2.1H84l-4.7,4.7C78.4,79.5,78.4,80.8,79.3,81.6z"/>
	<path class="st0" d="M2.5,80.9h13.7c1.2,0,2.1-0.9,2.1-2.1V74h27c14.5,0,27.2-9.6,31.2-23.5c4.5-0.6,8.3-3.9,9.4-8.4
		c0.3-1.1-0.4-2.3-1.5-2.5c-1.1-0.3-2.3,0.4-2.5,1.5c-0.8,3.1-3.5,5.3-6.8,5.3c-3.8,0-7-3.1-7-7s3.1-7,7-7c1.8,0,3.5,0.7,4.8,1.9
		l-3.4,3.4l-0.8-1.1c-0.7-0.9-2-1.2-2.9-0.5s-1.2,2-0.5,2.9l2.3,3.2c0.4,0.5,0.9,0.8,1.5,0.9c0.1,0,0.1,0,0.2,0
		c0.6,0,1.1-0.2,1.5-0.6L88.2,32c0.8-0.8,0.8-2.2,0-3s-2.2-0.8-3,0l-2.4,2.4c-2.1-2-4.9-3.2-7.8-3.2h-0.1
		c-5-11.3-16.1-18.7-28.6-19.1l4.6-4.6c0.8-0.8,0.8-2.2,0-3s-2.2-0.8-3,0l-8.1,8.1c-0.8,0.8-0.8,2.2,0,3l8.1,8.1
		c0.4,0.4,1,0.6,1.5,0.6s1.1-0.2,1.5-0.6c0.8-0.8,0.8-2.2,0-3l-4.5-4.5c10.5,0.4,19.8,6.4,24.3,15.8c-4,1.7-6.8,5.7-6.8,10.3
		c0,5.2,3.5,9.5,8.3,10.8c-3.7,11.6-14.5,19.5-26.9,19.5h-27V65c0-1.2-0.9-2.1-2.1-2.1H2.5c-1.2,0-2.1,0.9-2.1,2.1v13.8
		C0.4,79.9,1.4,80.9,2.5,80.9z M4.6,67.1h9.5v9.5H4.6V67.1z"/>
</g>
</svg>
