<?xml version="1.0" encoding="utf-8"?>
<!-- Generator: Adobe Illustrator 21.1.0, SVG Export Plug-In . SVG Version: 6.00 Build 0)  -->
<svg version="1.1" id="Layer_1" xmlns="http://www.w3.org/2000/svg" xmlns:xlink="http://www.w3.org/1999/xlink" x="0px" y="0px"
	 viewBox="0 0 179 179" style="enable-background:new 0 0 179 179;" xml:space="preserve">
<style type="text/css">
	.st0{fill:#FFFFFF;stroke:#FFFFFF;stroke-miterlimit:10;}
	.st1{fill:#69707A;}
</style>
<title>experience</title>
<circle class="st0" cx="89.5" cy="89.5" r="89"/>
<path class="st1" d="M64.7,52c-2.3,0.1-4.5,1-6.1,2.7c-1.7,1.6-2.7,3.8-2.7,6.1v55.4h-1.7c-2.1,0.1-4.1,1.1-5.4,2.8
	c-1.6,1.6-2.5,3.8-2.5,6c0,5.3,4.1,8.8,7.9,8.8h51c2.8-0.1,5.5-1.1,7.6-2.9c2-2,3.1-4.7,3-7.6v-59h14.1c0-3.5-0.5-7.8-2.7-10
	c-1.6-1.5-3.8-2.3-6-2.3L64.7,52z M64.7,55.5h49.2c-1.6,2.3-1.7,5.3-1.7,7.9v59.8c0.1,1.9-0.6,3.7-1.9,5.1c-1.4,1.3-3.2,2-5.1,1.9
	c-2.9-0.5-4.8-3.3-4.3-6.3c0.4-2.2,2.1-3.9,4.3-4.3c1,0,1.7-0.8,1.7-1.7c0-1-0.8-1.7-1.7-1.7l0,0H59.4V60.8c0.1-1.4,0.7-2.6,1.7-3.6
	C62,56.2,63.3,55.6,64.7,55.5z M121,55.5c1.3-0.1,2.6,0.4,3.6,1.2c0.7,0.7,1.2,2.1,1.5,4h-10.1c0.1-1.5,0.6-2.9,1.4-4
	C118.3,55.8,119.7,55.4,121,55.5L121,55.5z M68.9,64.3c-1,0.1-1.7,0.9-1.7,1.9c0.1,1,0.9,1.7,1.8,1.7h33.4c1,0,1.8-0.8,1.8-1.7
	c0-1-0.8-1.7-1.8-1.8L68.9,64.3z M68.9,76.6c-1,0.1-1.7,1-1.6,1.9c0.1,0.9,0.8,1.6,1.7,1.6h33.4c1,0.1,1.8-0.6,1.9-1.6
	c0.1-1-0.6-1.8-1.6-1.9c-0.1,0-0.2,0-0.3,0H68.9z M68.9,88.9c-1,0.1-1.7,0.9-1.7,1.8c0.1,1,0.9,1.7,1.8,1.7h33.4
	c1,0,1.7-0.8,1.8-1.8c0-1-0.8-1.7-1.8-1.7H68.9z M68.9,101.2c-1,0.1-1.7,0.9-1.7,1.8c0.1,1,0.9,1.7,1.8,1.7h33.4
	c1,0,1.7-0.8,1.8-1.8c0-1-0.8-1.7-1.8-1.7H68.9z M54.1,119.7H99c-1.1,1.5-1.8,3.4-1.8,5.3c0,1.9,0.5,3.7,1.6,5.3H54.1
	c-2.6-0.4-4.5-2.7-4.4-5.3c0.1-1.4,0.7-2.7,1.6-3.7C52.1,120.5,53,119.9,54.1,119.7z"/>
</svg>
