<svg xmlns="http://www.w3.org/2000/svg" width="32.79" height="18.21" viewBox="0 0 32.79 18.21">
  <defs>
    <style>
      .cls-1 {
        fill: #fff;
      }
    </style>
  </defs>
  <g id="Group_2" data-name="Group 2" transform="translate(-172.46 -246.54)">
    <path id="Path_1" data-name="Path 1" class="cls-1" d="M8.72,14q.17.32.315.665t.285.7q.14-.36.29-.71t.32-.67l4.28-8.01a1.111,1.111,0,0,1,.165-.24.51.51,0,0,1,.19-.13.839.839,0,0,1,.235-.05q.13-.01.31-.01h2.03V21H14.77V10.66q0-.26.015-.57t.045-.63l-4.37,8.2a1.152,1.152,0,0,1-.39.435,1.009,1.009,0,0,1-.56.155H9.14a1.009,1.009,0,0,1-.56-.155,1.152,1.152,0,0,1-.39-.435L3.76,9.43q.04.33.055.645t.015.585V21H1.46V5.54H3.49q.18,0,.31.01a.839.839,0,0,1,.235.05.556.556,0,0,1,.2.13,1.01,1.01,0,0,1,.17.24Z" transform="translate(171 241)"/>
    <rect id="Rectangle_1" data-name="Rectangle 1" class="cls-1" width="16" height="2" transform="translate(205.25 264.75) rotate(180)"/>
  </g>
</svg>
